<svg xmlns="http://www.w3.org/2000/svg" viewBox="0 0 680.31 690"><defs><style>.cls-1{fill:#3a465b;}.cls-2{fill:#739ad1;}.cls-3{fill:#d8c4ab;}.cls-4{fill:#9c7249;}.cls-5{fill:#3b495e;}</style></defs><title>jaboneras logo</title><g id="Capa_2" data-name="Capa 2"><g id="Capa_1-2" data-name="Capa 1"><path class="cls-1" d="M352.31,0h4c.56,1.6,1.93.93,3,1A307.18,307.18,0,0,1,414,8.58c82.2,19.15,148.42,62.91,198.69,130.49,37.75,50.75,59.33,108,65.82,170.92.44,4.33-.29,8.88,1.76,13v46c-1.37.4-.95,1.56-1,2.47A298.23,298.23,0,0,1,673.94,412c-19.6,94.33-68.89,169-149.06,222.67-42.78,28.64-90.05,45.83-141.15,52.54-7.14.94-14.45.63-21.42,2.8h-42c-1-1.38-2.46-.74-3.69-.82a309.67,309.67,0,0,1-39.08-5.06c-82.21-16-149.9-56.71-201.78-122.15C12.55,482.27-10.45,391.15,4.31,290.68c8.9-60.56,32.9-115,71.46-162.42,60.54-74.5,138.72-117,234.55-126.59,4.65-.46,9.52.43,14-1.67h4A85,85,0,0,0,352.31,0ZM182.59,300.05c0,3.25,0,6.5,0,9.75a39.16,39.16,0,0,0,0,10,105.52,105.52,0,0,1-.13,11c-.53,4.77,1,6.14,5.95,6.12,52.73-.19,105.45-.12,158.18-.12,3.16,0,6.33-.15,9.48.05s4.59-.59,4.34-4.08c-.32-4.31-.14-8.64-.18-13l-.06-10c0-3.25,0-6.5,0-9.75l.26-8c.9.42,1.82.81,2.7,1.26,25.95,13.11,51.93,26.17,77.82,39.39,3.32,1.7,5.26,1.83,6.74-2.09,1.4-3.7,3.37-7.19,5.09-10.78a22.63,22.63,0,0,0,4.66-9.28c4.67-8.71,9.39-17.4,13.31-26.48a23,23,0,0,0,4.52-8.84l13.21-26.18a26.8,26.8,0,0,0,4.28-8.44q6.44-12.81,12.88-25.63a23.49,23.49,0,0,0,4.59-9c2-3.84,3.72-7.82,6-11.47s1.59-5.31-2.37-7.28c-32.6-16.2-65.06-32.66-97.57-49-17.52-8.82-35.09-17.52-52.54-26.48-3.12-1.6-4.52-1.31-5.84,2-1.79,4.46-4,8.73-6.1,13.09a22,22,0,0,0-4.53,8.6L334.5,160.91a21.81,21.81,0,0,0-4.38,8.66c-1.53,4-4.46,5.32-8.59,4.67a31.92,31.92,0,0,0-5,0c-42.93,0-85.86.05-128.8-.09-4.07,0-5.68,1-5.31,5.23.37,4.46.14,9,.18,13.47a38.12,38.12,0,0,0,0,10q0,4,0,8a37.92,37.92,0,0,0,0,10c0,3.4,0,6.81,0,10.21a38.12,38.12,0,0,0,0,10c0,3.25,0,6.5,0,9.75a37.84,37.84,0,0,0,0,10q0,4.68,0,9.34a38.63,38.63,0,0,0,.05,10l0,9.86A38.48,38.48,0,0,0,182.59,300.05Zm157.78,69.83h-19q-133.47,0-267-.12c-4.86,0-6.27,1.28-6,6.1.92,16.47,2,32.91,5.19,49.12,13.56,69.38,46.65,127.69,101.18,172.73C225.55,656.17,307,676.66,397,659.48c66.12-12.62,121-46,164.35-97.38,45.13-53.43,68.31-115.5,70-185.48.19-7.57.84-6.73-6.56-6.73Q482.6,369.86,340.37,369.88Z"/><path class="cls-2" d="M340.37,369.88q142.23,0,284.46,0c7.4,0,6.75-.84,6.56,6.73-1.74,70-24.92,132.05-70,185.48-43.4,51.37-98.23,84.76-164.35,97.38-90,17.18-171.44-3.31-242.21-61.77C100.25,552.67,67.16,494.36,53.6,425c-3.17-16.21-4.27-32.65-5.19-49.12-.27-4.82,1.14-6.1,6-6.1q133.49.24,267,.12ZM248.9,500c4.56-.29,8.76-.2,12.82-.9,9.33-1.6,12.52-9.75,6.95-17.39-.78-1.06-1.11-1.56-.45-2.91,4-8.16,1.09-14.1-7.72-16.43-7.19-1.89-14.6-.41-21.84-1.42-4-.56-4.77,1.42-4.62,4.87a222.5,222.5,0,0,1-.2,27.93c-.34,4,1.89,6.2,6,6.24C243,500,246.16,500,248.9,500ZM411.31,479.6h-.11c0,5,.13,10,0,15-.14,3.95,2,5.12,5.43,5.5,3.79.41,4.54-1.56,4.46-4.69-.06-2.15.08-4.32.21-6.48.07-1.08-.16-2.23,1.4-2.8a9.18,9.18,0,0,1,11.08,4.41c1,1.92,2,3.85,3.08,5.69,1.83,3,4.68,3.95,8.1,3.85,2.41-.08,3-1,1.91-3.09-1.31-2.5-2.52-5.07-4-7.46s-1.59-3.92,1-6.12c6.77-5.83,5.93-14.45-1.58-19.26a23.27,23.27,0,0,0-6.81-2.94c-7-1.73-14.2-1.07-21.34-1.19-2.77-.05-2.74,1.76-2.74,3.66ZM299.25,502c12.55-.08,21-8.32,20.9-20.34C320.05,471.13,308,460,296.73,460c-10.52,0-19.57,9.29-19.53,20C277.25,491.59,287.74,502.08,299.25,502Zm219.64,0a23.73,23.73,0,0,0,9-1,12,12,0,0,0,8.62-12.07c-.12-6-2.63-9.13-8.84-11-4.83-1.44-9.83-1.48-14.78-1.9-1.15-.09-2.61.18-3.09-1.09-.57-1.51.87-2.42,1.79-3.25,3.55-3.2,12.25-3.22,16.26.1,1.76,1.45,2.86,2.45,4.8.14s1-3.63-.78-5.33c-5.3-5.07-11.74-6.64-18.79-6.56-6.56.08-12.66,4.4-13.65,9.6-1,5.39,2.95,11.13,9.51,13.58a19.66,19.66,0,0,0,4.33,1.1c3,.36,6,.42,8.92.84,1.55.22,3.65.15,4.13,2.13.54,2.22-1.44,3.19-2.94,4.12a9.54,9.54,0,0,1-3.7,1.43c-6,.77-11.74.1-16.3-4.28-2.32-2.24-3.41-.47-4.89.78-1.94,1.64-.91,2.81.55,4C504.92,498,510.71,502.86,518.89,502ZM353.2,483.8c-2.26-1-3.1-2.69-4.23-4.05-4.81-5.75-9.65-11.47-14.28-17.36a5.83,5.83,0,0,0-6.61-2.23c-2.49.71-1.34,3.1-1.37,4.75-.19,9.66-.32,19.32-.33,29,0,3.87,2.82,6.15,6.79,6.14,4.85,0,2.85-3.57,3-5.76.3-5.83-.77-11.7.2-18.87,5.58,7.2,10.33,13.35,15.11,19.49,1.64,2.1,3.25,4.3,5.68,5.53,3.73,1.89,6.05.38,6-3.73q-.08-9.48,0-19c0-4.34.25-8.67.16-13-.09-4-3.05-4.58-6.28-4.74-3.75-.19-2.62,2.57-2.77,4.49C353.71,470.76,354.72,477.13,353.2,483.8Zm16.11-5.37h.09c0,2.16,0,4.33,0,6.49,0,2.33-.1,4.66-.1,7,0,6.34,1.65,8.07,7.84,8.1,7.49,0,15-.05,22.48,0,2.83,0,5.61.1,5.5-3.82-.1-3.61-2-5.34-5.75-5.26-5.33.11-10.66,0-16,0-2.28,0-4.2.17-4.2-3.22,0-3.23,1.33-4,4.2-3.8,1.82.17,3.67-.06,5.5,0,2.23.13,2.81-.89,2.79-3-.06-4.38-2-6-8.53-6.73-1.63-.19-4.07.34-3.84-2.61.2-2.53,2.27-2,3.82-2,5.8-.28,11.61.13,17.44-.46,3.7-.36,3.32-2.36,3.25-4.68-.07-2.79-1.57-4.68-4.32-4.22-9,1.49-17.91.46-26.84-.25-2.77-.22-3.45.88-3.38,3.41C369.41,468.44,369.31,473.44,369.31,478.43ZM227.24,500c4.5.77,4.65-1.22,3.21-4.77-3.75-9.25-7.26-18.57-11.84-27.48a16.17,16.17,0,0,0-6.79-7c-2.17-1.21-4.77-1.81-6.36,1.29q-7.76,15.09-15.54,30.15c-1.34,2.57-2.15,5,1,6.87,2.87,1.75,5.44,1.18,7.61-1.21a10.83,10.83,0,0,0,2.51-3.68c2-6.59,7.37-5.3,12.29-5.61,4.7-.29,5.3,3.19,6.59,6.12C221.3,497.91,223,500.65,227.24,500Zm246.42-11.1c5.07-1.49,7.77,1,9.19,5.63a11.41,11.41,0,0,0,1.88,3.5c2.36,3.08,6,2.73,8.67,1.6s.19-3.83-.49-5.61a260.12,260.12,0,0,0-11.23-26.11,16.42,16.42,0,0,0-6.71-7.05c-2.19-1.23-4.84-2-6.42,1.06-5.37,10.32-10.66,20.69-16,31-1.08,2.1-1.49,4.08.76,5.73s4.53,1.95,6.91.31a10.37,10.37,0,0,0,3.68-4.65C465.75,489.89,468.61,487.49,473.66,488.85ZM163.63,461c-3.83,0-7.67.2-11.48-.06-3.47-.24-4.4,1.17-3.9,4.36s1.75,4.84,5.16,4.75c5.15-.12,10.31,0,15.47,0,1.8,0,3.33.08,3.12,2.61-.32,4-.21,8-.76,11.94-.42,3-1.66,5.68-5.2,6.56-3.72.92-7.19,1.44-10-1.91-1-1.13-2.07-2.16-3.08-3.26-2.19-2.38-4-.41-5.67.68-1.94,1.3-.15,2.63.61,3.74a24.87,24.87,0,0,0,2.89,3.43c6.31,6.36,14.55,8,22.43,4.41,6.39-2.88,9.28-9.2,8.63-18.5a103.75,103.75,0,0,1-.4-12.46c.22-4.7-2.17-6.23-6.29-6.26C171.28,461,167.45,461,163.63,461Z"/><path class="cls-3" d="M488.47,249.09l-13.21,26.18L362.7,218.88c-1.19-.59-2.61-1.22-2.32-2.85.95-5.49-2.47-5.25-6.28-5.25q-85.74.08-171.49,0,0-4,0-8c2.49,0,5-.12,7.49-.12q82.24,0,164.48.06c3.88,0,6-.32,6-5.24s-2.5-4.73-5.92-4.73q-86,.06-172,0c0-4.49.19-9-.18-13.47-.37-4.26,1.24-5.24,5.31-5.23,42.94.14,85.87.09,128.8.09a31.92,31.92,0,0,1,5,0c4.13.65,7.06-.66,8.59-4.67,4.09,1.63,7.57,4.76,12.38,4.62,5.95-.17,11.91-.12,17.87-.17l-.1-.06c0,2.49.18,5,0,7.47s.86,3.84,3.1,5Q425.94,217.67,488.47,249.09Z"/><path class="cls-3" d="M182.58,231c0-3.4,0-6.81,0-10.21q42.94-.06,85.9-.13c29,0,57.94,0,86.91-.06,3.43,0,5.64.58,4.9,4.59-.58,3.17,1.4,4.34,3.79,5.53,15.77,7.89,31.49,15.9,47.26,23.79q29.67,14.83,59.41,29.56c-3.92,9.08-8.64,17.77-13.31,26.47-1.64-.8-3.29-1.6-4.92-2.43q-43.92-22.08-87.81-44.22c-3-1.5-5-2.22-4.4,2.38.39,3.05-.93,4.14-4,4-5-.17-10,0-15,0l-158.8-.12c0-3.12,0-6.23,0-9.35,2.5,0,5-.13,7.49-.13q82.24,0,164.48.06c3.88,0,6-.33,6-5.24s-2.51-4.73-5.92-4.73q-86,.06-172,0c0-3.25,0-6.5,0-9.75q86.15,0,172.29.06c4.4,0,5.57-1.13,5.61-5.53,0-4.7-2.41-4.5-5.62-4.5Q268.73,231.11,182.58,231Z"/><path class="cls-3" d="M334.5,160.91l12.77-25.45c1.06.48,2.14.93,3.18,1.45L505.63,215l-12.89,25.63c-1.43-.84-2.82-1.76-4.3-2.51q-33.68-17-67.39-33.91Q390.69,189,360.27,174l.1.06C352,169.21,343.31,164.91,334.5,160.91Z"/><path class="cls-3" d="M452.77,319.87c-1.72,3.59-3.69,7.08-5.09,10.78-1.48,3.92-3.42,3.79-6.74,2.09-25.89-13.22-51.87-26.28-77.82-39.39-.88-.45-1.8-.84-2.7-1.26-1-3.41-3.89-1.91-5.88-1.91q-86-.17-172-.13l0-9.85,170.46,0c1.5,0,3,0,4.5,0,1.82,0,2.92-.68,2.71-2.63-.62-5.6,2.25-3.51,4.8-2.23,20.84,10.47,41.72,20.83,62.48,31.45C436,311.06,444.77,314.73,452.77,319.87Z"/><path class="cls-3" d="M351.8,126.86c2.05-4.36,4.31-8.63,6.1-13.09,1.32-3.29,2.72-3.58,5.84-2,17.45,9,35,17.66,52.54,26.48,32.51,16.37,65,32.83,97.57,49,4,2,4.67,3.59,2.37,7.28s-4,7.63-6,11.47q-67.32-33.87-134.65-67.71C367.71,134.4,360.05,130,351.8,126.86Z"/><path class="cls-4" d="M470.74,284.11q-29.7-14.78-59.41-29.56c-15.77-7.89-31.49-15.9-47.26-23.79-2.39-1.19-4.37-2.36-3.79-5.53.74-4-1.47-4.6-4.9-4.59-29,.1-57.94,0-86.91.06q-42.95,0-85.9.13a37.92,37.92,0,0,1,0-10q85.74,0,171.49,0c3.81,0,7.23-.24,6.28,5.25-.29,1.63,1.13,2.26,2.32,2.85l112.56,56.39A23,23,0,0,1,470.74,284.11Z"/><path class="cls-3" d="M360.2,319.8c0,4.33-.14,8.66.18,13,.25,3.49-1.26,4.27-4.34,4.08s-6.32-.05-9.48-.05c-52.73,0-105.45-.07-158.18.12-4.91,0-6.48-1.35-5.95-6.12a105.36,105.36,0,0,0,.13-11Z"/><path class="cls-4" d="M452.77,319.87c-8-5.14-16.78-8.81-25.21-13.12-20.76-10.62-41.64-21-62.48-31.45-2.55-1.28-5.42-3.37-4.8,2.23.21,2-.89,2.67-2.71,2.63-1.5,0-3,0-4.5,0l-170.46,0a38.63,38.63,0,0,1-.05-10l158.8.12c5,0,10-.13,15,0,3,.11,4.35-1,4-4-.59-4.6,1.44-3.88,4.4-2.38q43.88,22.19,87.81,44.22c1.63.83,3.28,1.63,4.92,2.43A22.61,22.61,0,0,1,452.77,319.87Z"/><path class="cls-4" d="M360.2,319.8l-177.64,0a39.23,39.23,0,0,1,0-10H360.14Z"/><path class="cls-4" d="M182.58,290.05q86,0,172,.13c2,0,4.84-1.5,5.88,1.91-.09,2.65-.17,5.3-.26,8H182.59A38.48,38.48,0,0,1,182.58,290.05Z"/><path class="cls-4" d="M182.61,192.81q86,0,172,0c3.42,0,5.88-.18,5.92,4.73s-2.08,5.24-6,5.24q-82.25-.13-164.48-.06c-2.5,0-5,.08-7.49.12A38.12,38.12,0,0,1,182.61,192.81Z"/><path class="cls-4" d="M182.58,231q86.14,0,172.29,0c3.21,0,5.66-.2,5.62,4.5,0,4.4-1.21,5.54-5.61,5.53q-86.14-.21-172.29-.06A38.12,38.12,0,0,1,182.58,231Z"/><path class="cls-4" d="M182.61,250.8q86,0,172,0c3.41,0,5.88-.18,5.92,4.73s-2.08,5.24-6,5.24q-82.25-.13-164.48-.06c-2.5,0-5,.09-7.49.13A37.84,37.84,0,0,1,182.61,250.8Z"/><path class="cls-3" d="M182.59,300.05H360.16c0,3.25,0,6.5,0,9.75H182.6C182.6,306.55,182.59,303.3,182.59,300.05Z"/><path class="cls-4" d="M351.8,126.86c8.25,3.15,15.91,7.54,23.77,11.48q67.37,33.76,134.65,67.71a23.49,23.49,0,0,1-4.59,9L350.45,136.91c-1-.52-2.12-1-3.18-1.45A22,22,0,0,1,351.8,126.86Z"/><path class="cls-4" d="M360.27,174q30.39,15.12,60.78,30.27,33.74,16.89,67.39,33.91c1.48.75,2.87,1.67,4.3,2.51a26.57,26.57,0,0,1-4.27,8.44q-62.55-31.38-125.11-62.7c-2.24-1.12-3.29-2.43-3.1-5S360.28,176.45,360.27,174Z"/><path class="cls-4" d="M334.5,160.91c8.81,4,17.47,8.3,25.87,13.11-6,0-11.92,0-17.87.17-4.81.14-8.29-3-12.38-4.62A21.81,21.81,0,0,1,334.5,160.91Z"/><path class="cls-5" d="M248.9,500c-2.74,0-5.9,0-9.06,0-4.11,0-6.34-2.26-6-6.24a222.5,222.5,0,0,0,.2-27.93c-.15-3.45.61-5.43,4.62-4.87,7.24,1,14.65-.47,21.84,1.42,8.81,2.33,11.68,8.27,7.72,16.43-.66,1.35-.33,1.85.45,2.91,5.57,7.64,2.38,15.79-6.95,17.39C257.66,499.81,253.46,499.72,248.9,500Zm3.72-15v0c-2.16,0-4.31,0-6.47,0-2.32,0-2.61,1.62-2.73,3.34-.08,1.13-.3,2.67,1.33,2.7,4.91.09,9.91.8,14.65-1.2,1.51-.64,2.47-1.82,2-3.54s-2.1-1.23-3.33-1.29C256.27,485,254.44,485,252.62,485Zm-3-9.68,0,.19c2.46-.28,5-.42,7.37-.92a2.8,2.8,0,0,0,2.35-2.84c0-2.12-1.64-1.68-2.85-1.74-3.31-.17-6.62-.25-9.93-.37-2.18-.07-2.86,1.16-2.85,3.14s1.23,2.51,2.91,2.54C247.65,475.35,248.65,475.34,249.64,475.34Z"/><path class="cls-5" d="M411.31,479.6v-16c0-1.9,0-3.71,2.74-3.66,7.14.12,14.33-.54,21.34,1.19a23.27,23.27,0,0,1,6.81,2.94c7.51,4.81,8.35,13.43,1.58,19.26-2.56,2.2-2.49,3.68-1,6.12s2.71,5,4,7.46c1.08,2.07.5,3-1.91,3.09-3.42.1-6.27-.81-8.1-3.85-1.11-1.84-2.09-3.77-3.08-5.69a9.18,9.18,0,0,0-11.08-4.41c-1.56.57-1.33,1.72-1.4,2.8-.13,2.16-.27,4.33-.21,6.48.08,3.13-.67,5.1-4.46,4.69-3.46-.38-5.57-1.55-5.43-5.5.17-5,0-10,0-15Zm18.78-10v.06h-6.44c-2,0-2.56,1.24-2.34,2.93.2,1.5-.76,3.95,1.54,4.11,4.56.33,9.24,1.09,13.69-.7a3.76,3.76,0,0,0,2.46-4.38c-.39-2.18-2.32-2-4-2S431.74,469.63,430.09,469.63Z"/><path class="cls-5" d="M299.25,502c-11.51.07-22-10.42-22.05-22.05,0-10.68,9-19.94,19.53-20,11.25,0,23.32,11.14,23.42,21.68C320.27,493.69,311.8,501.93,299.25,502Zm-1.54-9.64c7.91,0,12.59-4.44,12.58-12s-2.88-10.73-9.77-10.72c-7.68,0-13.07,4.91-13.08,11.89A10.51,10.51,0,0,0,297.71,492.37Z"/><path class="cls-5" d="M518.89,502c-8.18.88-14-4-19.85-8.71-1.46-1.17-2.49-2.34-.55-4,1.48-1.25,2.57-3,4.89-.78,4.56,4.38,10.32,5.05,16.3,4.28a9.54,9.54,0,0,0,3.7-1.43c1.5-.93,3.48-1.9,2.94-4.12-.48-2-2.58-1.91-4.13-2.13-3-.42-6-.48-8.92-.84a19.66,19.66,0,0,1-4.33-1.1c-6.56-2.45-10.54-8.19-9.51-13.58,1-5.2,7.09-9.52,13.65-9.6,7-.08,13.49,1.49,18.79,6.56,1.79,1.7,2.74,3,.78,5.33s-3,1.31-4.8-.14c-4-3.32-12.71-3.3-16.26-.1-.92.83-2.36,1.74-1.79,3.25.48,1.27,1.94,1,3.09,1.09,5,.42,10,.46,14.78,1.9,6.21,1.87,8.72,5,8.84,11A12,12,0,0,1,527.89,501,23.73,23.73,0,0,1,518.89,502Z"/><path class="cls-5" d="M353.2,483.8c1.52-6.67.51-13,1-19.33.15-1.92-1-4.68,2.77-4.49,3.23.16,6.19.7,6.28,4.74.09,4.33-.14,8.66-.16,13q0,9.48,0,19c0,4.11-2.29,5.62-6,3.73-2.43-1.23-4-3.43-5.68-5.53-4.78-6.14-9.53-12.29-15.11-19.49-1,7.17.1,13-.2,18.87-.11,2.19,1.89,5.75-3,5.76-4,0-6.8-2.27-6.79-6.14,0-9.66.14-19.32.33-29,0-1.65-1.12-4,1.37-4.75a5.83,5.83,0,0,1,6.61,2.23c4.63,5.89,9.47,11.61,14.28,17.36C350.1,481.11,350.94,482.81,353.2,483.8Z"/><path class="cls-5" d="M369.31,478.43c0-5,.1-10,0-15-.07-2.53.61-3.63,3.38-3.41,8.93.71,17.86,1.74,26.84.25,2.75-.46,4.25,1.43,4.32,4.22.07,2.32.45,4.32-3.25,4.68-5.83.59-11.64.18-17.44.46-1.55.08-3.62-.49-3.82,2-.23,2.95,2.21,2.42,3.84,2.61,6.49.76,8.47,2.35,8.53,6.73,0,2.11-.56,3.13-2.79,3-1.83-.11-3.68.12-5.5,0-2.87-.25-4.19.57-4.2,3.8,0,3.39,1.92,3.24,4.2,3.22,5.33,0,10.66.07,16,0,3.72-.08,5.65,1.65,5.75,5.26.11,3.92-2.67,3.85-5.5,3.82-7.5-.08-15,0-22.48,0-6.19,0-7.84-1.76-7.84-8.1,0-2.33.08-4.66.1-7,0-2.16,0-4.33,0-6.49Z"/><path class="cls-5" d="M227.24,500c-4.26.7-5.94-2-7.37-5.29-1.29-2.93-1.89-6.41-6.59-6.12-4.92.31-10.24-1-12.29,5.61a10.83,10.83,0,0,1-2.51,3.68c-2.17,2.39-4.74,3-7.61,1.21-3.1-1.89-2.29-4.3-1-6.87q7.82-15,15.54-30.15c1.59-3.1,4.19-2.5,6.36-1.29a16.17,16.17,0,0,1,6.79,7c4.58,8.91,8.09,18.23,11.84,27.48C231.89,498.73,231.74,500.72,227.24,500Z"/><path class="cls-5" d="M473.66,488.85c-5.05-1.36-7.91,1-9.75,5.45a10.37,10.37,0,0,1-3.68,4.65c-2.38,1.64-4.67,1.34-6.91-.31s-1.84-3.63-.76-5.73c5.33-10.35,10.62-20.72,16-31,1.58-3,4.23-2.29,6.42-1.06a16.42,16.42,0,0,1,6.71,7.05A260.12,260.12,0,0,1,492.91,494c.68,1.78,3,4.53.49,5.61s-6.31,1.48-8.67-1.6a11.41,11.41,0,0,1-1.88-3.5C481.43,489.82,478.73,487.36,473.66,488.85Z"/><path class="cls-5" d="M163.63,461c3.82,0,7.65,0,11.48,0,4.12,0,6.51,1.56,6.29,6.26a103.75,103.75,0,0,0,.4,12.46c.65,9.3-2.24,15.62-8.63,18.5-7.88,3.55-16.12,2-22.43-4.41a24.87,24.87,0,0,1-2.89-3.43c-.76-1.11-2.55-2.44-.61-3.74,1.62-1.09,3.48-3.06,5.67-.68,1,1.1,2.11,2.13,3.08,3.26,2.86,3.35,6.33,2.83,10,1.91,3.54-.88,4.78-3.57,5.2-6.56.55-3.94.44-8,.76-11.94.21-2.53-1.32-2.62-3.12-2.61-5.16,0-10.32-.09-15.47,0-3.41.09-4.69-1.7-5.16-4.75s.43-4.6,3.9-4.36C156,461.19,159.8,461,163.63,461Z"/><path class="cls-2" d="M252.62,485c1.82,0,3.65-.06,5.47,0,1.23.06,2.86-.49,3.33,1.29s-.51,2.9-2,3.54c-4.74,2-9.74,1.29-14.65,1.2-1.63,0-1.41-1.57-1.33-2.7.12-1.72.41-3.36,2.73-3.34,2.16,0,4.31,0,6.47,0Z"/><path class="cls-2" d="M249.64,475.34c-1,0-2,0-3,0-1.68,0-2.91-.52-2.91-2.54s.67-3.21,2.85-3.14c3.31.12,6.62.2,9.93.37,1.21.06,2.85-.38,2.85,1.74a2.8,2.8,0,0,1-2.35,2.84c-2.41.5-4.91.64-7.37.92Z"/><path class="cls-2" d="M430.09,469.63c1.65,0,3.3,0,5,0s3.57-.17,4,2a3.76,3.76,0,0,1-2.46,4.38c-4.45,1.79-9.13,1-13.69.7-2.3-.16-1.34-2.61-1.54-4.11-.22-1.69.33-2.94,2.34-2.93h6.44Z"/><path class="cls-2" d="M297.71,492.37a10.51,10.51,0,0,1-10.27-10.84c0-7,5.4-11.88,13.08-11.89,6.89,0,9.76,3.13,9.77,10.72S305.62,492.39,297.71,492.37Z"/></g></g></svg>