<?xml version="1.0" encoding="utf-8"?>
<!-- Generator: Adobe Illustrator 22.0.0, SVG Export Plug-In . SVG Version: 6.00 Build 0)  -->
<svg version="1.1" id="Capa_1" xmlns="http://www.w3.org/2000/svg" xmlns:xlink="http://www.w3.org/1999/xlink" x="0px" y="0px"
	 viewBox="0 0 1417.3 1417.3" style="enable-background:new 0 0 1417.3 1417.3;" xml:space="preserve">
<style type="text/css">
	.st0{fill:none;}
</style>
<g>
	<path class="st0" d="M443.5,1110.9c-3.8,1.3-6.1,7.4-4.1,10.9c0.8,1.4,2,2,3.5,2.3c5,0.9,8.1-1.9,8.1-7.5
		C451,1111.7,448,1109.4,443.5,1110.9z"/>
	<path class="st0" d="M201.2,1116.2c-1.3-0.8-2.7-0.9-4.1,0c-2.4,1.6-4.1,6.2-3.4,9c0.6,2.4,2,4,4.5,4.3c2.4,0.3,4.5-1,5.5-3.6
		c0.4-1.2,0.6-2.5,0.8-3.1C204.5,1119.5,203.4,1117.5,201.2,1116.2z"/>
	<path class="st0" d="M370.5,1094.1c0.7-4.8-0.9-6.2-5.5-7.7c-14.2-4.4-12.1,17.4-10.4,22.2c0.8,2.1,2.6,2.7,4.7,2.3
		c2.3-0.5,4.2-1.6,5.6-3.5C367.8,1103.4,368.8,1098.6,370.5,1094.1z"/>
	<path d="M1279.2,814.9c-1.5-4.6-2.9-9.3-5.5-13.3c-3.6-5.4-5.5-11.6-8.2-17.4c-0.5-1-0.6-2.2-1.5-3c-3.7-3.6-6.5-7.9-9.7-11.9
		c-5.6-7.1-13.4-10.8-20.5-15.7c-5.5-3.8-12.1-5.1-18.3-7.4c-3.2-1.2-6.4-1.9-9.8-2.4c-4.8-0.7-9.7-0.4-14.4-1
		c-9.9-1.2-19.5,0.9-29.2,2.3c-3.6,0.5-6.4,2.9-9.7,4.2c-20.9,8.4-37.2,21.8-47.1,42.5c-5.2,10.9-7.7,22-7.3,34
		c0.2,7.3,4,13.1,7.1,19.2c0.3,0.5,0.8,1,1.3,1.4c2.1,1.7,3.3,1.6,4.6-0.7c2.4-4.2,5.5-7.9,8.6-11.6c5.5-6.7,13.4-7.7,20.7-2.9
		c4.8,3.2,7.9,7.7,11,12.5c4.9,7.4,6.3,15.4,6.6,23.8c0.2,6.1-2.2,11.3-5.3,16.3c-1.3,2.1-3.1,3.9-5.4,4.7c-6,1.9-11.7,4.6-17.9,5.8
		c-10,1.8-20.1,2.8-30.3,2.6c-7-0.1-13.6-2.3-20.4-3.3c-0.8-0.1-1.5-0.5-2.2-0.9c-3.4-1.5-6.9-2.7-10.3-4c-4.2-1.6-8.9-2.4-12.4-5.3
		c-4.9-4.2-10.1-8-14.5-12.8c-8.9-9.7-17.1-20.1-27.6-28.3c-1.4-1.1-2.3-2.7-3.5-4c-1.9-2-1.9-4-0.3-6.1c1.9-2.6,3.9-5.1,6.5-7.1
		c7.4-5.8,13.8-12.6,19.3-20.1c3.2-4.4,6.9-8.9,8.1-14.2c2.5-10.1,7.4-19.2,11.1-28.8c2.7-7.2,4.7-14.6,7.5-21.8
		c0.3-0.9,0.7-1.9,0.7-2.8c0.2-5.8,0.6-11.5,3.2-16.9c0.4-0.8,0.2-1.9,0.3-2.9c1.3-11.7,0.7-23.5,0.8-35.2c0.1-5.8-1-11.5-2.4-17.1
		c-1.9-7.4-4.8-14.4-7.2-21.5c-2-5.8-4.6-11.4-10-15.1c-2.9-2-5.3-4.3-6.9-7.3c-2.8-5.2-6.9-9.2-11-13.3c-3.1-3-6.5-5.3-10.3-6.9
		c-8.6-3.7-17.6-6.4-26.9-7.4c-8.5-0.9-17-0.8-25.6-0.2c-8.8,0.6-16.1,5.3-23.5,9.5c-7.1,3.9-13.1,8.8-17.1,16.4
		c-5.6,10.7-8.6,21.9-7.8,33.9c0.3,4.9,0,10.1,2.2,14.7c3.1,6.5,5.1,13.6,10.9,18.6c0.5,0.4,0.8,1,1.1,1.6c2.8,5.6,7.1,10.3,10,15.9
		c1.5,2.9,3.9,3.1,6.4,1c1-0.8,1.8-1.8,2.3-3c2.1-4.9,4.4-9.8,4.5-15.2c0.2-5.8,4.3-9.4,8.4-11.5c6-3.1,13-2.8,19,0.8
		c9.2,5.5,12.4,18.6,7.3,27.9c-0.7,1.3-1.3,2.6-2,3.9c-3.3,6.1-6.3,12.2-11.2,17.3c-2.8,2.9-5.1,6.2-7.8,9.2
		c-5.1,5.6-9.3,11.9-14.1,17.8c-3.9,4.9-7,4.5-10.5-0.7c-2.2-3.4-3.8-7.1-5.5-10.7c-2.6-5.8-6.9-10.5-10.1-15.9
		c-5.5-9.5-11.2-18.8-17.4-27.8c-8.5-12.5-15.4-26-24.9-37.9c-0.4-0.5-0.7-1.1-0.8-1.7c-0.9-5.2-4.8-8.6-7.6-12.7
		c-2.2-3.1-4.7-6.1-7.1-9.2c-4.8-6.3-7.3-14-12.5-20c-0.4-0.5-0.6-1.2-0.7-1.8c-0.6-3.3-2.6-5.8-4.9-8.2c-1.2-1.3-2.5-2.6-3.4-4.1
		c-3.6-5.7-7.2-11.5-12-16.3c-0.8-0.8-1.4-1.8-2-2.7c-2.2-4-4.2-8-6.4-11.9c-2-3.5-4.5-6.7-7.8-9.1c-3.2-2.3-5.6-5.4-7.6-8.6
		c-5.6-9-11-18.1-17.2-26.8c-7.7-10.8-15.7-21.2-25.5-30.1c-1.7-1.5-3.3-3.2-4.4-5.1c-5-8.3-13.4-14-17.6-22.9
		c-0.5-1-1.5-1.6-2.3-2.5c-4.3-4.7-9-9.2-12.8-14.4c-4.7-6.6-10.4-12.3-17.4-16.5c-1.7-1-3.4-1.9-4.8-3.2
		c-7.3-6.8-14.5-13.7-21.6-20.7c-5.6-5.5-11.2-11.1-17.2-16.2c-3.3-2.8-7.2-4.8-10.1-8.2c-2.6-3-5.6-5.8-8.1-8.9
		c-3.2-4-7.7-6.4-11-10.2c-4.1-4.8-8.8-8.8-13.7-12.8c-9.2-7.3-17.8-15.3-27.8-21.6c-10.4-6.7-20.5-13.8-32.6-17.5
		c-6.3-1.9-12.3-4.8-18.4-7.1c-3.5-1.3-7.1-2.1-10.8-2.5c-1.7-0.2-3.1,0.6-4,2.2c-0.9,1.7-0.3,3.1,0.9,4.4c1.8,1.9,3.9,3.4,6.1,4.6
		c7.1,3.7,12.7,9.2,18.1,15c4.1,4.5,7.6,9.5,11.9,13.9c8.6,8.6,17.7,16.9,25.6,26.3c3.6,4.3,7.1,8.8,11.7,12.1
		c8,5.8,14.8,12.9,21,20.5c3.9,4.7,8.1,9.2,12.6,13.4c3.2,3,6.5,5.8,8.8,9.4c3.9,6.1,9.4,10.7,14.6,15.3c2.6,2.3,4.5,5.1,6.5,7.6
		c2.3,2.7,5.5,3.7,7.7,6.3c2.2,2.7,3,6,5.4,8.5c4.2,4.4,8.5,8.7,12.5,13.4c2.3,2.7,4.3,5.6,6.9,8c4.8,4.4,9.6,8.9,13.8,13.9
		c0.6,0.7,1.4,1.5,1.7,2.3c1.5,4.2,4.7,7.3,7.4,10.6c10.3,12.5,20.9,24.9,30,38.4c2.5,3.7,5.6,7.1,6.8,11.6c0.9,3.2,1.4,6.7,5.4,7.8
		c0.5,0.1,0.9,0.9,1.2,1.5c5.5,9.3,12.8,17.4,17.7,27c3.9,7.7,9.8,14.4,13.4,22.3c2.8,6.2,7.1,11.6,9.1,18.1
		c3.5,11.1,9.3,21.2,15,31.2c3,5.3,6.9,10,9.3,15.8c2.4,6,5.8,11.5,9,17.1c2.2,3.9,4.2,8,5.8,12.2c1.5,4.1,4.4,7.4,6.5,11.1
		c2.8,5,6.3,9.6,8.8,14.8c1.7,3.7,3.3,7.3,5,11c3.4,7.2,7,14.1,12.3,20.1c2,2.3,3.5,5,3.9,8.2c0.2,1.3,0.4,2.7-0.8,3.5
		c-3.8,2.6-7.4,5.7-12.5,5.5c-5.1-0.2-10.3,0-15.5,0c0,0,0-0.1,0-0.1c-3.7,0-7.4,0.2-11.1,0c-10.6-0.6-21.3-1.1-30.6-7.2
		c-0.8-0.5-1.8-0.8-2.7-1.1c-4.8-1.6-8.7-4.7-12.6-7.9c-6.4-5.4-9.4-13.3-14-20c-0.5-0.8-0.8-1.8-0.8-2.8c0-7-2-13.7-2.2-20.6
		c-0.2-8.1-0.1-16.1-0.1-24.2c0-2.1-0.1-4.3,0.5-6.2c1.2-4.1,1.2-8.3,1.7-12.4c0.8-6.6,0.4-13.2,1-19.8c0.7-7.1,0-14.1-0.8-21.2
		c-0.9-7.7-2.7-15.2-4.8-22.6c-2.7-9.6-7.4-17.7-15.4-23.8c-1-0.8-2-1.6-2.9-2.5c-7.5-7.3-17.3-10.7-26.1-16
		c-0.7-0.4-1.5-0.4-2.3-0.6c-1.5-0.2-2.8-0.8-4-1.6c-3.4-2-7.1-2.9-11-3.2c-5.8-0.4-11.7-0.4-17.2-1.8c-7.3-1.9-14-0.1-21,1.2
		c-0.6,0.1-1.2,0.5-1.7,0.9c-2,1.4-2.2,2.7-0.2,4.2c2.4,1.8,5,3.6,8,4.4c9.2,2.6,16.9,7.8,23.5,14.6c1.9,2,3.6,4.2,4.6,6.8
		c3.9,10.5,6.1,21.3,6.4,32.5c0.5,17.9-1.5,35.7-1.1,53.6c0,2-0.4,3.8-1,5.7c-2.5,7.8-4.7,15.7-8.4,23.1c-2.1,4.2-3.4,8.7-3.9,13.4
		c-1.1,9.6-2,19.2-2.9,28.8c-0.2,1.7,0,3.6,0.2,5.3c1.3,11.4,1.8,22.8,2.6,34.2c0.2,3.4,0.7,6.7,1.5,10c2.1,8.6,5.1,16.9,7.7,25.4
		c0.3,1.1,1,2,1.6,3c3.6,5.7,8,10.8,12.3,16c10.7,13.1,21.4,26.2,37.1,33.7c5.2,2.5,10.1,5.7,15.7,7.4c5.4,1.6,10.8,3.3,16.2,4.6
		c6.2,1.5,12.4,3.5,18.9,3.7c13,0.3,26.1,0,39.1,1c9.5,0.7,18.9-0.9,28.3-2.6c4-0.7,8-0.9,12-1.3c6.9-0.7,13.7-2,20.5-3.1
		c0.6-0.1,1.3-0.4,1.8-0.7c3.1-1.9,6.6-2.6,10.1-3c2.4-0.3,4.5-1.2,6.6-2.6c4-2.8,8.4-2.9,12.7-0.3c4.2,2.6,7.5,6.1,10.4,10
		c1.6,2.2,2.8,4.8,4.6,6.8c7.4,8,14.1,16.8,21.8,24.5c2.2,2.2,4.2,4.5,5.7,7.2c5.1,9.6,12.7,17,21.4,23.2c1.6,1.1,3.2,2.1,4.6,3.5
		c8,8.2,17,15.3,26.3,21.9c4.7,3.4,9.6,6.5,14,10.3c2.4,2.1,5.4,3.6,8.7,3.9c5.1,0.4,9.6,2.6,14.1,4.8c4.2,2.1,8.4,4.2,12.9,5.5
		c13.6,4,27.2,7.9,41.1,10.2c10,1.7,20.2,1.9,30.1-1.6c9.1-3.3,18.4-6.1,27.2-9.9c6.6-2.8,13.6-5.1,19.4-9.5
		c5.1-3.9,10.3-7.7,15.2-11.8c5.6-4.6,11.4-9,15.5-15.1c0.6-0.9,1.6-1.6,2.5-2.2c2.1-1.5,3.8-3.4,5.5-5.4
		c5.6-6.9,10.7-14.1,15.6-21.4c7.3-10.8,12.3-22.5,15.4-35.1c0.5-1.9,1-3.7,1.3-5.7c1.8-14.5,4.9-28.9,4.3-43.6
		c0-1.1,0.1-2.3,0.2-3.4c1.1-6.7-0.5-13.3-2.2-19.5C1283.3,833.1,1282.1,823.8,1279.2,814.9z"/>
	<path d="M550.1,270c9.3,0.7,18.6,1.7,27.4,5.4c0.9,0.4,1.9,0.4,2.8,0.7c7.8,2,14.9,5.7,22,9.5c5.6,3,10.9,6.9,16.7,9.6
		c9.7,4.6,18.4,10.5,26.7,17.2c4.6,3.7,9,7.9,13.8,11.2c6.3,4.3,11,10,14.9,16.2c2.4,3.9,5.1,7.3,8.2,10.5c1.4,1.5,2.8,3.1,4,4.8
		c4.7,6.1,9.5,12.1,14.9,17.7c3.6,3.7,7.9,6.7,10.7,11.1c2.5,3.9,5.7,7,9.2,9.8c4,3.3,7.6,7,11.1,10.8c8.6,9.4,16.8,19.2,25.7,28.2
		c6.7,6.7,13.4,13.4,19.4,20.7c2.2,2.7,5,5,7.9,7c12.2,8.8,25.7,15.3,38.9,22.4c4.6,2.5,9.5,4.4,15.1,4.6c6.8,0.2,13.4,1.5,19.8,4
		c2.5,1,5.3,1.3,8.1,1.2c23.1-0.4,46.3,1.1,69.3-2.8c10.5-1.8,20.9-3.8,30.8-7.7c5.1-2,10.4-3.8,15.3-6.5c3.9-2.2,8-4.1,11.6-6.8
		c5.2-3.8,9.6-8.8,15.5-11.5c5.7-2.6,9.5-6.9,13.5-11.2c11-11.8,19.3-25.7,30.2-37.5c4.8-5.2,6.4-12.5,11.7-17.3
		c0.4-0.3,0.4-1.2,0.4-1.8c0.1-1.7,0.9-3,1.9-4.4c1.2-1.7,2-3.6,2.7-5.6c1.8-5.1,3.7-10.3,5.9-15.3c3.1-7.2,6.6-14.3,8.6-22
		c0.9-3.4,2.4-6.6,5-9.2c2.6-2.6,3.8-6,4.2-9.5c0.3-2.9,1.2-5.6,2.6-8.2c2.1-3.8,4.9-7.5,5.8-11.6c1.1-5.7,4.7-10.1,6.6-15.4
		c1.4-4.1,4-8,5.7-12.1c4.9-11.5,9.3-23.3,18.3-32.5c0.3-0.3,0.5-0.8,0.8-1.2c4-5.8,8.8-10.7,14.6-14.5c9.8-6.4,20-12,31.2-16.1
		c9.3-3.4,18.7-4.5,28.3-5.2c5.2-0.4,10.3,0.7,15.4,0.9c6.7,0.3,12.8,1.8,18.7,5.4c8.4,5,13.9,11.7,16,21.2
		c1.7,7.7,1.7,14.7-5.6,19.8c-1.3,0.9-2.4,2.1-3.6,3.3c-5,5-10.9,8.2-17.7,10.2c-5.1,1.5-8.8,0.3-12.2-3.1c-1.5-1.5-2.9-2.9-4.8-4
		c-4.4-2.6-5.5-2.5-7.8,2.2c-2.7,5.3-5.1,10.8-6.7,16.5c-0.6,2-0.9,4.1-0.7,6.2c0.3,3.7,0.4,7.4,0.8,11.1c0.5,4.5,1.2,8.8,4.5,12.4
		c3.9,4.2,6.9,9.2,10.1,14c2.4,3.7,6.1,6.2,10.4,7.4c6,1.6,12.1,1.9,18.2,0.8c10.3-1.8,20.4-4.5,30.9-5.5c0.5,0,1-0.1,1.4-0.3
		c4.1-2.8,9-4.2,13.4-6.7c5.5-3.1,10.3-7.2,15.6-10.6c3.7-2.4,6.7-5.4,8.6-9.5c1.2-2.7,2.9-4.9,5.3-6.7c8.1-6.1,13.6-14.3,17.1-23.5
		c2.3-5.9,4.1-12,6.3-18c2.4-6.4,3.7-13.4,3.2-20.4c-0.2-3.7,0.6-7.4-1.3-10.9c-1.6-3-2.3-6.4-3.5-9.5c-3.5-8.6-5.3-17.8-9-26.4
		c-1.5-3.5-4.1-6.2-5.6-9.6c-5.2-12.1-15.6-18.3-26.6-23.9c-3.8-1.9-7-5-11.4-5.6c-0.4-0.1-0.8-0.5-1.1-0.9
		c-1.5-2.2-3.8-2.8-6.3-3.1c-1.6-0.2-3.1-0.8-4.4-1.8c-1-0.8-2.1-1.5-3.4-1.7c-5.4-0.7-10.9-1.7-16.3-1.9
		c-13.4-0.3-26.7-0.3-40.1-0.1c-10.1,0.1-19.9,2.2-29,6.3c-7.6,3.5-14.8,7.8-23,9.9c-0.9,0.2-1.6,1-2.5,1.4c-4.4,2-7.5,6.7-13.2,6
		c-0.8-0.1-1.5,0.6-1.8,1.4c-0.6,2.3-2.5,2.8-4.4,3.3c-4.3,1.3-8.2,3.5-11.2,6.5c-7.9,7.8-17,14.3-23.8,23.3
		c-1.5,1.9-3.3,3.5-5.3,4.9c-5,3.5-9.5,7.6-13.7,12.2c-2.6,2.9-4.5,6.8-9,7.6c-0.9,0.2-1.4,1.2-1.6,2.3c-0.2,0.9-0.3,1.8-0.9,2.7
		c-3.8,5.7-7.8,11.3-11.5,17.1c-2.3,3.6-4.4,7.4-6.9,11c-2.2,3.1-3,7.1-6.4,9.4c-0.3,0.2-0.5,0.8-0.6,1.3c-0.3,2.2-1.6,3.7-2.8,5.5
		c-1.9,2.8-3.5,5.7-4.9,8.8c-3.1,6.9-5.6,14-9.9,20.3c-0.6,0.9-0.8,2.1-1.3,3.1c-2.4,4.2-3.2,9.2-6.4,12.9
		c-5.4,6.3-9.3,13-10.2,21.3c-0.1,1.1-0.8,2.1-1.2,3.1c-0.9,2.2-2,4.4-2.8,6.7c-4.5,13.7-13.3,24.6-22.9,34.8
		c-4.8,5.1-10,10-14.5,15.4c-5.1,6.2-11.3,11.4-18.1,15.8c-9.1,5.9-18.9,10.2-29,14c-4.7,1.8-9.7,3.3-14.4,4.8
		c-5.8,1.8-12.1,2.9-18.5,2.8c-8.5-0.2-17.1-0.6-25.6,0.7c-2.5,0.4-5.2,0.4-7.7-0.3c-8.5-2.5-17.4-3.2-25.9-5.5
		c-18-4.9-34.7-12.3-50-23.2c-11.1-7.9-20.8-17.3-30.7-26.4c-1.8-1.6-3.7-3.1-5.3-4.9c-4.1-4.5-8.5-8.8-12.8-13.2
		c-1.1-1.2-2.5-2-4-2.6c-4.4-1.8-8-4.6-11.2-8.1c-2.3-2.5-4.1-5.3-6.4-7.9c-3.6-4.1-8.5-6.9-12.1-11.1c-2.4-2.8-5.3-5.1-8.4-7.2
		c-4.8-3.2-9.3-7-13.4-11.1c-2.6-2.7-5.3-5.1-8.4-7.2c-5.8-3.8-11.6-7.5-17-11.9c-2.8-2.3-5.8-4.7-9.1-6.1
		c-6.6-3-13.2-6.1-19.1-10.3c-3.3-2.4-7-4-10.8-5.3c-1.5-0.5-3.1-1-4.5-1.7c-7.5-4.2-15.6-7.1-24-8.4c-6.5-1-13.1-2-19.7-1.4
		c-3.4,0.3-6.7,0.7-10.1,0.7c-7.2,0-13.8,2.7-20.5,4.8c-2.7,0.8-5.1,2.8-6.8,5.2c-0.6,0.8-1.1,1.7-0.7,2.7c0.5,1.1,1.6,0.9,2.5,0.8
		c0.8-0.1,1.6-0.3,2.4-0.4C539.8,270.5,545,269.6,550.1,270z"/>
	<path d="M1358.2,492.4c0-6.9,0-13.9,0-20.8c0,0-0.1,0-0.1,0c0-3.9-0.1-7.7,0-11.6c0.1-6.1,0-12.3-1-18.3
		c-1.2-6.9-3.1-13.5-7.1-19.3c-3.7-5.3-7.6-10.4-11.2-15.7c-4-6-7.7-12.2-12.7-17.5c-6.3-6.8-11.8-14.5-20-19.3
		c-4.8-2.8-9.4-6.4-15-7.4c-3.8-0.6-7.6-1.4-11.4-2.3c-4.7-1.1-9.6-1.4-14.4-1.2c-6.1,0.2-12.1,2.1-18.1,2.7
		c-8.1,0.8-15.1,4.6-22.4,7.2c-7.9,2.8-15.1,8-21.5,13.6c-4.9,4.2-8.7,9.4-8.9,16.5c-0.1,4.7-0.9,9.3-1.4,13.9
		c-0.2,1.6,0,3.2,0.4,4.8c1.3,4.5,3.4,8.7,5.8,12.7c0.7,1.2,1.4,2.8,3.2,2.3c1.4-0.4,1.6-1.8,1.9-3.1c0.1-0.5,0.1-1,0.2-1.4
		c2.1-6.5,5.6-12,11.8-15.2c9.6-4.8,19.7-5.5,30.1-3.3c6.4,1.3,11.9,4.6,17.4,8.1c5.2,3.3,9.2,7.4,11.9,12.9
		c4.4,9.4,7.5,18.9,4.6,29.4c-0.4,1.5-0.5,3.2-0.4,4.8c0.6,10.5-4.7,18.7-10.8,26.2c-3.6,4.4-8.2,8.2-12.2,12.3
		c-2.6,2.7-5.7,4.6-9,6.3c-3.6,1.9-7.5,2.8-11.3,4.2c-8.7,3.2-17.8,4.3-26.7,6.5c-4.2,1-8.5,1.6-12.8,2.5c-6.9,1.4-13.9,2.8-21,0.6
		c-3.4-1-6.9-1.4-10.4-2.1c-7.5-1.5-14.7-4.1-20.1-9.7c-6.3-6.5-9.8-14.5-11.3-23.5c-1.3-8,2.6-17.4,11.3-19.9
		c5.7-1.6,9.4-6,11.5-11.6c1.6-4.2,3.6-8.3,4.7-12.7c1.8-7,2.6-14.2,1.3-21.5c-1-5.6-4.3-9.2-9.3-11.5c-8.3-3.7-16.7-6.7-26-5.6
		c-2.5,0.3-5.2,0.1-7.7,0.2c-1.1,0-2.5-0.1-3.3,0.5c-3.6,2.5-7.9,2.5-11.8,3.8c-4.3,1.5-8.3,3.7-11.9,6.3c-3.9,2.8-7.7,5.8-11.7,8.6
		c-1.9,1.3-3.6,2.8-4.6,4.9c-1.8,3.4-4.5,5.9-7.7,7.9c-1.8,1.2-3.2,2.6-4.3,4.4c-1.7,2.7-3.5,5.4-5.6,7.8c-2.7,3.1-5,6.4-6.6,10
		c-2.6,5.9-6.6,10.6-10.8,15.3c-1.3,1.4-2.5,3-3.6,4.5c-6.5,8.7-13.7,16.7-22.6,23c-3.9,2.8-8.1,5.3-12,8.1c-4.2,3-8.3,6.1-12.8,8.5
		c-4,2.2-8.4,3.3-12.5,5.1c-9.3,3.9-18.6,8-28.8,9.4c-4.9,0.7-9.8,2.1-14.8,2.4c-19.4,1-38.6,0-57.1-6.6
		c-7.7-2.7-15.6-5.2-22.3-10.2c-2.4-1.8-5.3-2.4-8.1-2.9c-2.6-0.5-6.6,1.2-6.8,2.6c-0.4,2.8,1.6,4.3,3.6,5.8
		c0.1,0.1,0.3,0.2,0.4,0.3c3.2,1.9,6,4.3,8.9,6.7c4.2,3.5,8.2,7,13.7,8.7c4.2,1.3,8.5,3.1,12.2,5.8c3.2,2.2,6.6,3.9,10.3,5.2
		c3.4,1.1,6.5,2.6,9.5,4.6c4.3,2.8,8.7,5.6,13.8,6.8c5.8,1.5,11.3,3.9,17.2,4.6c1.1,0.1,2.2,0.6,3.2,1.1c5.7,2.5,11.6,3.7,17.8,3.7
		c6.3,0,12.6-0.3,18.8,1.1c6,1.3,12,1.9,18.2,2.2c4.8,0.2,9.7,0.2,14.3,2.1c5.8,2.3,11.1,5.9,17.6,6.2c0.2,0,0.3,0.1,0.5,0.2
		c7.7,4.1,14.9,9.1,20.9,15.3c3.7,3.8,6.9,8.1,10.1,12.3c3.6,4.9,8.3,7.5,14.3,8c2.3,0.2,4.4,0.6,6.6,1.5c9.5,3.7,17.7,1.5,24.7-5.6
		c4.6-4.6,5.5-8.6,2.8-14.4c-2.8-5.9-5.4-12-10-17c-1.8-2-3.5-4.3-4.6-6.8c-1.8-3.9-4.5-7-7.1-10.3c-3.1-4.1-5.8-8.4-8.1-13.1
		c-4.5-8.8-5.2-18.5-7.1-28c-0.8-3.8,0-7.6,2.3-10.6c3.5-4.8,7.6-9.2,13-12c2.3-1.2,4.8-1.8,7.2-2.7c0.6-0.2,1.3-0.4,1.9,0
		c3.8,2.3,8.4,3.8,10.8,7.9c4.1,7.1,7.9,14.4,11.6,21.7c1.7,3.3,3.1,6.7,5.7,9.4c6.7,6.9,11.5,15.1,15.7,23.6
		c1.5,3.1,3.5,5.7,5.6,8.4c4,4.9,9.4,8.2,13.9,12.7c10.2,10.4,20,21.4,33.4,28c6.5,3.2,12.6,7.2,20.1,7.5c0.9,0,1.9,0.5,2.8,0.7
		c9.3,2,18.4,4.9,28.1,3.3c0.9-0.1,1.9,0.1,2.9,0.2c3.7,0.6,7.4,0.2,11-0.7c5.1-1.4,10.2-3.1,15.5-3.4c7.2-0.4,12.7-5.3,19.5-6.7
		c0.4-0.1,0.8-0.6,1.1-0.9c1.6-1.6,3.8-2.4,5.6-3.7c3.3-2.3,8-2.5,10.1-6.8c0.5-0.9,1.9-1.2,3-1.4c2.4-0.2,4-1.8,5.8-3.2
		c4.9-3.9,8-9.8,14.3-12.1c0.7-0.2,1.1-1.1,1.6-1.8c1.9-2.8,3.9-5.5,5.5-8.5c4.7-8.5,9.2-17,13.7-25.5c1.3-2.4,2.7-4.7,3.6-7.4
		c2.6-8,3.5-16.4,5.5-24.5c1.7-7,0.6-14.5,4.3-21.1C1358.4,495.2,1358.2,493.7,1358.2,492.4z"/>
	<path d="M1170.5,1152.4c-0.1-1.8-0.7-3.4-1.3-5.1c-1.6-5.2-4.1-10.2-5.8-15.3c-1.9-5.6-4.8-10.5-8.1-15.2c-3.7-5.2-8-9.9-12.1-14.8
		c-4-4.9-9-8.7-13.9-12.5c-4-3.1-8.7-5.4-12.4-9.1c-0.6-0.7-1.6-1.2-2.5-1.3c-4.4-0.5-7.4-3.6-10.9-6c-1.1-0.7-2-1.9-3.1-2.2
		c-5.3-1.4-10.1-4.2-15.7-4.8c-3.5-0.4-7-1.2-10.4-2.2c-2-0.6-4-1.4-6.1-1.5c-9-0.4-18.1-0.7-27.1,0.1c-15.2,1.3-30.3,4.4-45.4,6.7
		c-7.2,1.1-14.5,1-21.7,0.6c-3.5-0.2-7-1.3-10.1-3c-14.6-8-22.3-21-25.4-36.8c-2-10.3-2.2-20.8-2.1-31.3c0-5.2-0.1-10.3-0.6-15.4
		c-0.5-6.2-0.4-12.5,0.1-18.8c0.7-8.3-0.2-16.4-4-24c-2.2-4.4-4.8-8.7-7.4-13c-1.3-2-2.8-3.9-4.4-5.7c-2.1-2.5-5-3.4-8.2-3.4
		c-1.1,0-2.4,0.1-2.8,1.4c-0.3,1,0.4,1.8,1.1,2.5c2.2,2.1,4,4.5,5.4,7.3c3.8,8.3,2.5,16.7,0.7,25.1c-1.5,7.1-4.1,13.8-6.4,20.7
		c-2.3,6.9-2.4,14.5-4.4,21.6c-0.9,3.3,0,7.1-0.2,10.6c-0.6,11.6,2.3,22.7,5.1,33.7c0.4,1.7,0.7,3.5,0.8,5.2
		c0.1,10,3.1,19.4,6.9,28.4c4,9.5,8.9,18.5,16.1,26.2c5.3,5.6,10.8,10.9,17.4,15.1c1.5,1,2.9,1.9,4.7,2.4c7.7,1.8,15.6,2.8,23.4,2.5
		c7.3-0.2,14.7-1.5,21.9-3.5c1.7-0.5,3.4-1,5.2-1c10-0.1,20-0.2,30-0.2c4.9,0,9.5,1.5,14,3.3c3.7,1.5,7,3.9,10.5,6
		c4.1,2.4,7.2,5.8,9.6,10c3.5,6,6,12.5,8.8,18.8c4,9,3.4,18.9,4.5,28.5c0.9,7-1.9,13.7-2.9,20.5c-1,6.9-4.2,13-9,17.9
		c-5.5,5.6-11.2,11.2-18,15.2c-1.9,1.1-4,2.1-5.8,3.5c-6,4.5-12.7,6.9-20.2,7c-10,0.2-20,0.1-30,0.2c-3.8,0.1-7.1-1.2-9.4-4.1
		c-4.4-5.5-8.7-11-9.2-18.7c-0.5-7.6,2.1-12.7,9.4-14.6c7.4-2,14.5-5.4,22.5-5.4c3,0,3.8-1.5,3.3-4.6c-0.2-1.1-0.4-2.3-1-3.2
		c-2.1-3.4-4.3-6.8-6.7-10c-5.3-6.9-13-10.9-20-15.7c-1.6-1.1-3.5-1.7-5.4-1.9c-5.8-0.5-11.6-0.7-17.3,0.2c-2.4,0.4-4.6,1.3-6.7,2.7
		c-3.2,2.1-6.6,4.1-9.9,6c-4.6,2.7-9,5.9-11.9,10.4c-4.2,6.5-7.6,13.4-11,20.4c-2.2,4.5-1.5,9.6-3.1,14.1
		c-1.8,5.2-1.7,10.4-1.8,15.7c-0.1,3.9,0.1,7.7,0,11.6c-0.2,9.2,3,17.7,7.9,25c4.4,6.7,8.8,13.5,13.2,20.1
		c6.9,10.3,15.5,18.3,27.6,22.3c3.9,1.3,7.8,1.9,11.6,3c7.6,2.2,15.1,4.3,23.1,4.6c6.4,0.2,12.9,1.3,19.3,0.7
		c9.1-0.8,18.2-2.1,27.3-3.7c6.2-1.1,12.2-3,18.2-4.7c3.9-1.1,7.8-2,11.1-4.4c0.8-0.6,1.7-0.9,2.6-1.2c7.2-2.3,14-5.3,20.7-8.9
		c7.2-3.8,13.8-7.9,19.8-13.5c8.6-8,16.9-16.2,24-25.6c7-9.3,12.2-19.7,16-30.6c2.4-7,4-14.3,6.3-21.2c2.2-6.6,2.9-13.1,2.8-19.9
		c0-2.3,0-4.5,0-6.8C1172.8,1174.2,1171.3,1163.3,1170.5,1152.4z"/>
	<path d="M533.4,237.6c4-0.8,7.9-1.5,11.8-2.4c10.9-2.4,21.8-4,33-3.5c6.1,0.3,12.2,1.2,18.3,1c5.5-0.2,11,0.5,16.2,2
		c5.4,1.6,10.9,2.2,16.2,4.6c7.6,3.5,13.3,9.5,20.4,13.6c5.2,3,9.2,7.8,14.8,10.4c1.1,0.5,2.2,1.4,3.1,2.3c2.9,3,6.4,5.4,9.9,7.7
		c3,2,5.8,4.2,8.1,6.9c7.5,8.9,17.7,14.2,27,20.7c3.8,2.7,8,4.7,12.3,6.6c13.2,5.9,25.4,13.8,38.9,19.3c14.5,5.9,29.3,9.6,44.9,10
		c16.2,0.3,32.5,0.2,48.5-3.2c4.6-1,9.4-1.3,13.3-3.8c3-1.9,6-2.9,9.3-3.6c3-0.6,5.7-2,8.5-3.3c4-1.9,7.3-4.6,10.9-7
		c4.3-2.8,8.5-5.7,12.6-8.9c9.1-7,15.6-16.2,21.9-25.5c2.8-4.1,5.8-8.2,7.4-13c1.4-4,3.3-7.7,5.6-11.2c2-3.1,3-6.4,3.1-10
		c0.1-3.5,0.6-7.1,1.5-10.5c0.8-3,0.9-6,1.6-9c1.1-5.4-0.3-10.6-0.2-15.9c0.1-6.3-0.2-12.4-2.4-18.5c-3.7-10.3-7.8-20.4-14.5-29.2
		c-3.3-4.4-7.3-8.1-9.8-13.1c-0.5-1-1.5-1.7-2.3-2.4c-5.2-5-11.2-8.5-18.1-10.7c-9-2.9-17.6-7.1-26.9-9.1c-4-0.9-7.9-1.1-12-0.5
		c-2.2,0.3-4.5,0.6-6.7,0.7c-10.5,0.6-20.3,3.2-28.9,9.5c-6.4,4.8-11,11.2-15.4,17.8c-1.8,2.7-4.1,5.4-4.3,8.6
		c-0.7,8-2.8,15.8-3.8,23.7c-0.7,5.5,0.5,10.9,1.3,16.3c0.3,1.9,1.1,3.7,2.4,5.2c1.6,2,4,2.6,6,1.2c2.3-1.7,4.9-3.4,6.2-6
		c3.2-6.7,8.5-9.9,15.6-10.3c6.8-0.4,13.3,0.1,19.5,3.7c6.2,3.6,10.6,8.4,14,14.7c4.2,8,4.2,20-1.2,27c-2.9,3.8-5.6,7.8-8.8,11.5
		c-8.8,10.2-19.7,17.3-31.4,23.6c-6.4,3.4-13.4,4.6-20.2,6.2c-12.8,3-25.9,3.3-38.6-1.2c-1.3-0.5-2.9-0.9-4.2-0.8
		c-8.4,0.7-15.2-3.6-22.3-6.9c-3-1.4-6-3.2-8.7-5.2c-5.4-4.1-9.9-9.1-14.8-13.8c-5.1-4.9-9.4-10.6-15.1-14.8
		c-7.8-5.8-16.5-10.3-24.2-16.4c-5.8-4.6-12.7-7.6-19.1-11.2c-10.7-6.1-22.3-9.7-34.6-11.1c-6.8-0.8-13.5-0.7-20.3-0.7
		c-4.2,0-8.4,0-12.6,0c-3.6,0-7.1,0.6-10.5,1.6c-6.6,2-32.6,8.8-36.8,10.8c-1.6,0.8-10.5,5-13.6,5.8c-4.5,1.1-8.8,2.5-13,4.5
		c-4.8,2.3-8.8,5.8-13.4,8.2c-1.8,0.9-12.8,9-16.9,11.5c-2.4,1.5-3.3,3.9-3.7,6.5c-0.4,2.9,1.8,5.4,4.6,4.7
		c4.1-1.2,8.4-1.8,12.3-4.1c4.6-2.8,9.6-5.3,14.9-6.6c3.5-0.8,6.8-1.8,9.9-3.7C530.9,238.2,532.1,237.8,533.4,237.6z"/>
	<path d="M493.8,989.8c-0.5-1.5-0.9-3.1-1-4.7c-0.7-6.1-1.8-12.1-4.3-17.8c-1.6-3.7-11.3-34.3-12.2-40.4c-1-7-3.5-13.7-3.1-20.9
		c0.1-1.5-2.5-17.3-2.8-18.9c-0.7-3.6-6.9-23.1-6.6-29.7c0.5-10.4-3.1-20-5.6-29.7c-1-3.9-2.2-7.7-2.2-11.8c0-1.5,0.1-3-0.1-4.5
		c-0.5-3.5-3.2-4.6-5.9-2.3c-6.5,5.2-12.8,10.6-20.9,13.3c-0.6,0.2-1.1,0.7-1.5,1.1c-2.6,2.8-5.8,4.7-9.1,6.2
		c-4.7,2.2-65.4,18.7-76.3,19.8c-2.1,0.2-44.2,30.5-46.7,33c-2.3,2.3-5.7,3.2-7.6,5.7c-2.8,3.8-6.3,6.9-10.2,9.5c-2.4,1.6-5,3-7.1,5
		c-6.5,6.5-14,11.8-21.5,17.1c-4.4,3.2-8.8,6.5-12.7,10.3c-2.5,2.5-5,5.1-8.1,6.8c-11.8,6.7-20.3,16.8-28,27.5
		c-5.4,7.5-9.2,16.1-14.7,23.7c-3.3,4.5-6.1,7.1-12.4,10c-0.9,0.2-1.9,0.6-2.6,1.2c-5.1,3.9-11.2,5.2-17.3,4.8
		c-6.4-0.4-12.9-1.7-17.3-7.3c-8-10.1-18.2-14.8-30.2-21.3c-0.3-0.2-0.7-0.3-1.1-0.5c-7.9-2.8-10.9-10-15.8-15.6
		c-0.4-0.4-0.3-1.3-0.6-1.8c-1.6-3.4-2.2-7.1-3.2-10.6c-1.8-6.2-5.5-11.6-6.5-18.1c-0.5-3.3-5-16.5-7.1-19.8
		c-8.7-20.9,22-83.6,23.8-89.9c0.8-2.9,3.8-10.5,4.8-13.2c0.5-1.3,58.6-134.5,59.9-137.7c1.1-2.7,2.4-5.3,3.1-8.1
		c0.6-2.4,26.6-62.1,27.9-68.5c0.3-1.4,4.9-13.5,5.2-15.6c0.2-1.5,8.4-18.5,9.8-22.2c0.5-1.3,3.4-12.8,4.2-15.8
		c1.9-7.9,2.9-15.8,2.4-23.9c-0.1-2.1,0-4.2-0.1-6.3c-0.1-4.9,15.8-37.9,17.7-41.8c2.3-4.7,5.7-8.9,7.8-13.8c1.2-2.8,3.3-5,4.7-7.6
		c19.6-36.6,24.5-82.4,26.1-86.6c0.3-0.7,44.9-225.1,44.2-235.4c-0.4-6,0.2-19,5-12.9c4.8,6.1,18.2,19.9,20.2,22
		c4.8,5.2,66.6,65.3,69.4,69.4c3.8,5.4,30.2,42.9,31.3,47.6c0.4,1.5,1.8,2.9,2.8,4.4c1.5,2.2,3.4,4.4,5.8,5.5
		c2.2,1.1,5.1,5.4,5.5,5.5c0.7,0.1,1.1-0.3,1.3-1.1c1.4-5.1,1.2-10.1-1-14.9c-2.1-4.7-21-38.2-27.1-43c-1.9-1.5-3.3-3.5-4.5-5.7
		c-2.9-5.3-7-9.7-11.4-13.6c-5.8-5.1-11.3-10.4-16.1-16.4c-2.1-2.7-4.3-5.2-6.8-7.6c-8-7.6-16.2-15.2-24.3-22.7
		c-1.3-1.2-17-16-17.7-17.2c-1.8-3.4-5.6-4.6-8-7.5c-1.2-1.5-2-3.3-3.7-4.4c-6.6-4.3-11.8-10.2-18.2-14.7c-0.8-0.6-6.6-3.9-7.9-3.8
		c-2.7,0.2-4.4,22.5-5.3,25.1c-3.5,9.7-55.8,295.7-57,297.4c-2.6,3.7-17,36.1-18.2,37.8c-2,2.8-15,26-15.8,27.7
		c-2.5,5.5-6.2,10.5-7.3,16.8c-0.7,3.9-4.7,30-5.2,35.1c-0.1,1.1-4.1,18.9-6.5,25.1c-1.8,4.7-4.5,9-5.7,13.8
		c-1.4,5.7-3.8,11-6.2,16.2c-4.7,9.9-23.1,53.6-24.4,55.9c-0.9,1.5-1.6,3.2-1.9,4.9c-1.5,7.6-5,14.5-8.1,21.5
		c-0.3,0.7-24.4,55.8-24.7,57.1c-0.3,1.4-9.2,21.7-9.4,22.7c-0.3,1.4-23,55.7-23.2,56.9c-0.5,3.2-5.6,16.3-6.7,18.1
		c-3.2,5.2-6.7,17.9-6.8,18.4c-1.2,7.5-4.2,14.5-7.1,21.5c-1.5,3.7-8.7,26.7-8.7,31.8c0.1,7.4,0.7,15.1,4.9,21.9
		c0.7,1.2,7.2,17,8.5,21.9c1.1,4.2,6,17.9,6.3,19.7c1,5.1,13.1,20.2,15.3,22.4c3.4,3.5,7.8,5.1,11.9,6.9c4.8,2.1,12,5.8,15.5,9.3
		c2.1,2.1,6.1,7.1,15.6,11.1c10.9,4.6,23.4,4.6,34.2-0.2c0.1,0,0.1-0.1,0.2-0.1c2-0.9,4.1-2.3,6.1-2.7c2.5-1.2,2.3-1.5,4.3-2.9
		c5.5-4,10.7-8.5,15-14c5.4-7,10.2-14.4,13.9-22.5c2-4.4,5.1-7.8,8.7-10.8c2.4-2,5.6-2.7,7.7-4.7c1.7-1.6,6.8-4.8,7.3-5.9
		c0.2-0.5,1-1.4,1.9-2.1c5.1-3.5,8.9-8.3,13.1-12.8c2.9-3.1,6-5.7,9.7-7.8c2.4-1.3,5.2-3.7,7.2-4.8c2.2-1.1,1.2-2.2,4-3.6
		c0.3-0.1,0.5-0.4,0.7-0.7c6.9-8.2,15.8-14.1,23.6-21.2c2.7-2.5,5.4-3.9,8.4-6c1.1-0.8,2.1-1.5,3.1-2.6c4.3-4.7,14.5-11.5,19.8-15
		c6.7-4.4,9.1-6.9,13-8.8c1.6-0.8,75.5-17.4,78.6-18.8c3.7-1.6,6.5-4.1,9.4-6.6c2.4-2.1,8.5-7.7,13.3-7.7c0.8,0,1.6,0,2.4,0.1
		c3.1,0.3,5.4,2,7.3,4.3c1.6,2,2.4,28.2,3.5,28.7c2,5.6,5.8,24.2,5.8,25.3c-0.1,5.9,4.4,19.7,4.5,20.9c0.6,6.6,4.5,28.1,4.6,29.1
		c0.4,4.6,4.7,17.5,5.2,19.5c0.5,1.9,8.3,36.1,8.6,37.2c0.5,1.8,1.7,15.3,4,19.7c0.9,1.7,1.8,10.2,2.2,12.5
		c0.4,2.6,2.2,17.4,2.1,19.8c-0.2,4.3-0.8,14.3-1,14.8c-2,4.6-1.3,9.5-1.6,14.3c-0.3,3.9-4.9,28.6-5.7,36.1
		c-0.3,2.9-4.6,22.4-5.1,28.3c-0.3,3.4-1.8,6.5-3.7,9.3c-1.3,2-3.4,2.5-5.5,2.4c-2.2-0.1-6.7-13.2-7.3-16c-0.7-3.3,0.8-6.3,3.2-7.3
		c2.4-1,7.8-2.2,8.5-2.8c6-5.2-7.1-2.4-8.5-3.3c-4.8-1.6-4.9-10.1-4.3-15c0.4-2.8,0.5-22.6-1.2-24.7c-0.6-0.8-1.2-1.6-1.8-2.4
		c-2.6-4.1-5.1-4.4-8.1-0.9c-0.9,1-1.6,2.2-2.1,3.5c-2.4,6.2-4.9,12.3-7.3,18.5c-1.7,4.5-3.9,8.7-5.9,13.1c-1.7,3.7-5.4,6.1-9.4,6.1
		c-1.4,0-6.7,0.5-7.9,1.1c-3,1.7-3.3,3.2-0.7,5.5c1.3,1.2,2.7,2.3,4.1,3.4c4.6,3.5,5.5,7.2,2.4,12c-3.6,5.5-6.7,11.4-10.9,16.5
		c-1.6,2-2,4.4-1.7,6.8c0.3,2.2,1.8,3.3,3.7,2.3c3.1-1.6,16.4-21.5,19.3-27c1.3-2.5,3.3-4.4,6.3-4.9c3-0.5,6.1-0.4,9.2-0.2
		c1.8,0.1,3.1,1.1,3.7,2.7c1.5,4.6,7.4,26.9,22,30.3c6.1-0.5,9.5-2.9,11.5-8.8c1.1-3.4,8.3-48.5,8.5-52.5c0.1-2.6,4.7-19.5,4.7-21.9
		c0.1-6,4.1-37,4-44.8c-0.1-5.9-2.9-19.7-2.9-20.8C498.3,1007.8,496.9,998.7,493.8,989.8z M442.9,1124.1c-1.5-0.3-2.7-0.9-3.5-2.3
		c-2-3.5,0.3-9.6,4.1-10.9c4.5-1.5,7.5,0.8,7.4,5.7C450.9,1122.2,447.9,1125,442.9,1124.1z"/>
	<path d="M232.7,1149.6c-1.3-0.2-2.6-0.4-3.8-0.7c-3.3-0.8-5.5-3.7-5.2-7.1c0.2-2.3,1.2-4.2,2.9-5.9c2.1-2.1,14.8-3.4,8.4-6.3
		c-0.6-0.3-4.1-0.3-7.4-0.6c-2.4-0.2-4.6-1.6-5.8-3.8c-3.4-6.1-6.4-17.7-6.4-19c0-2.3-4.3-23.4-4.8-24.4c-1.8-3.3-3.3-3.7-6.5-1.8
		c-1.3,0.7-2.5,1.7-3.4,2.9c-1.5,2.1-13.2,29.8-13.5,32.7c-0.2,2.9-2.6,5.2-5.5,5.4c-5,0.3-10.2,1.5-14.6-2.8
		c-1.8-1.8-4.2-0.6-4.6,1.9c-0.4,2.8,0.4,5.4,1.5,8c0.9,2,2.9,1.8,4.6,2.1c2.3,0.5,4.5,1.5,4.9,4c0.8,4.4,0.7,8.8-2.1,12.5
		c-1.3,1.7-8.5,12.8-10.4,15.4c-2.4,3.2-2.6,6.9-2.5,10.5c0.1,3.2,2.1,4.1,5,2.3c2.2-1.3,3.9-3.3,5.5-5.4c2.1-2.7,3.7-5.9,6.3-7.9
		c3.7-2.9,10.3-16.9,12.1-19.9c0.8-1.3,2.1-2,3.6-2.1c3.7-0.4,7.4-0.4,11.1,0.2c1.6,0.3,2.7,1.3,3.9,2.6c3.6,4,8.5,24.8,9.1,26.8
		c0.5,1.6,5,6.9,7.1,7.3c2.9,0.5,5.8,0.2,8.6-0.2c4-0.6,6.6-3.2,7.4-6.7c0.9-4.2,1.6-8.6,1.2-12.9
		C238.8,1151.3,238.2,1150.7,232.7,1149.6z M203.9,1125.9c-1,2.6-3.1,4-5.5,3.6c-2.5-0.3-3.9-1.9-4.5-4.3c-0.7-2.9,1-7.4,3.4-9
		c1.4-1,2.7-0.8,4.1,0c2.2,1.3,3.3,3.4,3.5,6.6C204.5,1123.4,204.3,1124.7,203.9,1125.9z"/>
	<path d="M390.5,1149.7c-1.7-0.8-3.1,0.2-4.3,1.3c-0.4,0.3-0.7,0.6-1.1,0.9c-3.4,2.1-6.4,1.5-8.7-1.7c-1.4-2-2.6-4-3.7-6.2
		c-1.9-3.9-3.9-7.8-6.3-11.4c-3.3-5-3-9.5,1.5-13.6c1.2-1.1,2.6-1.9,3.9-2.8c4.1-2.8,8.5-5.9,10.2-10.6c2.8-7.7,2.4-15.2-4.1-21.4
		c-0.7-0.7-1.5-1.4-1.7-2.3c-0.7-2.9-2.7-3.2-5.2-3.2c-6.3,0.1-12.6,0-18.8,0c0,0,0,0,0,0c-6.6,0-13.2-0.1-19.8,0
		c-4.5,0.1-5.6,1.4-5.9,5.8c-0.4,8.6,0.9,9.9,9.9,10c3.4,0,5.7,2,5.2,5.3c-0.7,5-0.3,10-0.8,14.9c-1.2,12.2-1.9,24.4-1.7,36.6
		c0,2.1,0.1,4.2-0.4,6.2c-0.8,3.5,0.2,6.3,2.1,9.1c0.5,0.8,0.9,1.8,2.1,1.7c1.1-0.1,1.5-1.1,1.9-2c3.1-8,4.6-16.1,2-24.5
		c-0.7-2.2-0.8-4.4-0.3-6.7c0.8-3.6,5.5-6,8.6-2.7c1.8,1.9,3.3,3.9,4.6,6.2c2.1,3.9,12,21.3,13.6,25.4c1.7,4.3,10.1,6.2,12.9,2.9
		c3.1-3.7,5.7-7.8,6.3-12.8C392.6,1152.5,392.4,1150.6,390.5,1149.7z M359.3,1110.9c-2.2,0.5-4-0.1-4.7-2.3
		c-1.7-4.8-3.8-26.6,10.4-22.2c4.6,1.5,6.2,2.8,5.5,7.7c-1.7,4.5-2.7,9.3-5.6,13.3C363.5,1109.3,361.6,1110.4,359.3,1110.9z"/>
	<path d="M301.1,1084.9c-2.6-1.5-5-3.5-8-4.4c-6.8-2-8.5-0.7-8.2,6.4c0.2,5.3,1.3,10,7.7,11c0.3,0,0.6,0.5,0.9,0.4
		c1.5-0.3,3.5,15.9-0.1,28.2c0,0.6-6.6,26.1-6.8,26.5c-0.6,2.1-1.5,4-3.9,4.5c-2.5,0.4-3.9-1.3-4.9-3.1c-0.9-1.6-1.2-3.3-1.4-5.1
		c-0.3-2.6-4.3-19.4-5.3-25.4c-0.6-3.5-9.7-25.6-13.6-29.9c-1.5-1.6-3.6-2.1-5.7-2.2c-3.3-0.3-6.4,0.5-9.5,1.5
		c-1.7,0.6-3.3,1.4-3.5,3.5c-0.2,2.1,0.7,3.9,2.4,4.9c1.9,1.2,4,2.1,6,3c1.8,0.8,3.6,1.6,4.7,3.3c2.1,3.6,4.8,7,5.5,11.2
		c1.2,7.1,18.5,49.3,18.7,49.5c2.2,2.9,10.4,4.8,13.7,3.3c1.7-0.8,2.9-1.9,3.5-3.7c0.5-1.4,9.7-34.6,9.8-35.6
		c0.5-4.2,1.1-8.3,1.1-12.5c0.1-4.8,0.2-27.2-0.7-31.9C303.2,1087,302.4,1085.7,301.1,1084.9z"/>
	<path d="M373.6,191.7c-0.6-0.7-0.8-1.8-1.3-2.6c-2.2-3.3-3.9-7-7.6-9.1c-1.7-1-3.4-2.7-4.3-4.5c-1.7-3.5-4.4-5.9-7-8.5
		c-5.2-5.5-9.8-11.4-13.2-18.2c-2.5-4.9-6.4-4.8-10.7-3.8c-1.7,0.4-2.6,1.8-2.6,3.6c0,1.6,0.3,3.3,1.1,4.7c1.8,2.9,3.6,5.7,5.6,8.4
		c1.8,2.4,4.4,4.5,5.7,7.1c1.3,2.6,10,8.6,10.4,12c0.1,0.7,0.8,1.4,1.3,2c1.9,2.4,3,5.3,4.8,7.7c1.2,1.7,15.6,21.2,16.6,23.4
		c1.4,3.2,9,13.5,10,15.1c2.4,3.5,14.1,9.7,14.6,9.4c3.3-1.5-6.6-24.9-7.4-25.7C383.6,206.2,379.4,198.4,373.6,191.7z"/>
</g>
</svg>
